<svg id="visual" viewBox="0 0 960 300" width="960" height="300" xmlns="http://www.w3.org/2000/svg" xmlns:xlink="http://www.w3.org/1999/xlink" version="1.1"><rect x="0" y="0" width="960" height="300" fill="#EEF4F7"></rect><path d="M0 99L22.8 99.3C45.7 99.7 91.3 100.3 137 104.2C182.7 108 228.3 115 274 113.7C319.7 112.3 365.3 102.7 411.2 96C457 89.3 503 85.7 548.8 88.5C594.7 91.3 640.3 100.7 686 101.5C731.7 102.3 777.3 94.7 823 94.8C868.7 95 914.3 103 937.2 107L960 111L960 0L937.2 0C914.3 0 868.7 0 823 0C777.3 0 731.7 0 686 0C640.3 0 594.7 0 548.8 0C503 0 457 0 411.2 0C365.3 0 319.7 0 274 0C228.3 0 182.7 0 137 0C91.3 0 45.7 0 22.8 0L0 0Z" fill="#222222"></path><path d="M0 96L22.8 90.8C45.7 85.7 91.3 75.3 137 69.2C182.7 63 228.3 61 274 67C319.7 73 365.3 87 411.2 90.8C457 94.7 503 88.3 548.8 87.3C594.7 86.3 640.3 90.7 686 92.3C731.7 94 777.3 93 823 92.2C868.7 91.3 914.3 90.7 937.2 90.3L960 90L960 0L937.2 0C914.3 0 868.7 0 823 0C777.3 0 731.7 0 686 0C640.3 0 594.7 0 548.8 0C503 0 457 0 411.2 0C365.3 0 319.7 0 274 0C228.3 0 182.7 0 137 0C91.3 0 45.7 0 22.8 0L0 0Z" fill="#1c1c1c"></path><path d="M0 78L22.8 76C45.7 74 91.3 70 137 67.7C182.7 65.3 228.3 64.7 274 62.2C319.7 59.7 365.3 55.3 411.2 55.3C457 55.3 503 59.7 548.8 60.7C594.7 61.7 640.3 59.3 686 59.8C731.7 60.3 777.3 63.7 823 66.2C868.7 68.7 914.3 70.3 937.2 71.2L960 72L960 0L937.2 0C914.3 0 868.7 0 823 0C777.3 0 731.7 0 686 0C640.3 0 594.7 0 548.8 0C503 0 457 0 411.2 0C365.3 0 319.7 0 274 0C228.3 0 182.7 0 137 0C91.3 0 45.7 0 22.8 0L0 0Z" fill="#171717"></path><path d="M0 36L22.8 38.8C45.7 41.7 91.3 47.3 137 49.8C182.7 52.3 228.3 51.7 274 51.3C319.7 51 365.3 51 411.2 47.5C457 44 503 37 548.8 34.7C594.7 32.3 640.3 34.7 686 38C731.7 41.3 777.3 45.7 823 48.5C868.7 51.3 914.3 52.7 937.2 53.3L960 54L960 0L937.2 0C914.3 0 868.7 0 823 0C777.3 0 731.7 0 686 0C640.3 0 594.7 0 548.8 0C503 0 457 0 411.2 0C365.3 0 319.7 0 274 0C228.3 0 182.7 0 137 0C91.3 0 45.7 0 22.8 0L0 0Z" fill="#111111"></path><path d="M0 26L22.8 25.5C45.7 25 91.3 24 137 24.3C182.7 24.7 228.3 26.3 274 27.3C319.7 28.3 365.3 28.7 411.2 28.5C457 28.3 503 27.7 548.8 26.2C594.7 24.7 640.3 22.3 686 22.7C731.7 23 777.3 26 823 25.8C868.7 25.7 914.3 22.3 937.2 20.7L960 19L960 0L937.2 0C914.3 0 868.7 0 823 0C777.3 0 731.7 0 686 0C640.3 0 594.7 0 548.8 0C503 0 457 0 411.2 0C365.3 0 319.7 0 274 0C228.3 0 182.7 0 137 0C91.3 0 45.7 0 22.8 0L0 0Z" fill="#0a0a0a"></path></svg>