<svg id="visual" viewBox="0 0 960 300" width="960" height="300" xmlns="http://www.w3.org/2000/svg" xmlns:xlink="http://www.w3.org/1999/xlink" version="1.1"><rect x="0" y="0" width="960" height="300" fill="#FFFFFF"></rect><path d="M0 109L22.8 108.7C45.7 108.3 91.3 107.7 137 104.2C182.7 100.7 228.3 94.3 274 91.5C319.7 88.7 365.3 89.3 411.2 95C457 100.7 503 111.3 548.8 114.5C594.7 117.7 640.3 113.3 686 108.5C731.7 103.7 777.3 98.3 823 100.5C868.7 102.7 914.3 112.3 937.2 117.2L960 122L960 0L937.2 0C914.3 0 868.7 0 823 0C777.3 0 731.7 0 686 0C640.3 0 594.7 0 548.8 0C503 0 457 0 411.2 0C365.3 0 319.7 0 274 0C228.3 0 182.7 0 137 0C91.3 0 45.7 0 22.8 0L0 0Z" fill="#2f2e2e"></path><path d="M0 92L22.8 88.2C45.7 84.3 91.3 76.7 137 74.3C182.7 72 228.3 75 274 79.2C319.7 83.3 365.3 88.7 411.2 86C457 83.3 503 72.7 548.8 68C594.7 63.3 640.3 64.7 686 66.5C731.7 68.3 777.3 70.7 823 75.8C868.7 81 914.3 89 937.2 93L960 97L960 0L937.2 0C914.3 0 868.7 0 823 0C777.3 0 731.7 0 686 0C640.3 0 594.7 0 548.8 0C503 0 457 0 411.2 0C365.3 0 319.7 0 274 0C228.3 0 182.7 0 137 0C91.3 0 45.7 0 22.8 0L0 0Z" fill="#262525"></path><path d="M0 49L22.8 53.2C45.7 57.3 91.3 65.7 137 70.2C182.7 74.7 228.3 75.3 274 72.8C319.7 70.3 365.3 64.7 411.2 62.5C457 60.3 503 61.7 548.8 59.2C594.7 56.7 640.3 50.3 686 47.7C731.7 45 777.3 46 823 47.7C868.7 49.3 914.3 51.7 937.2 52.8L960 54L960 0L937.2 0C914.3 0 868.7 0 823 0C777.3 0 731.7 0 686 0C640.3 0 594.7 0 548.8 0C503 0 457 0 411.2 0C365.3 0 319.7 0 274 0C228.3 0 182.7 0 137 0C91.3 0 45.7 0 22.8 0L0 0Z" fill="#1e1d1d"></path><path d="M0 57L22.8 53.5C45.7 50 91.3 43 137 39.8C182.7 36.7 228.3 37.3 274 39.5C319.7 41.7 365.3 45.3 411.2 45.5C457 45.7 503 42.3 548.8 41.2C594.7 40 640.3 41 686 43.5C731.7 46 777.3 50 823 49.5C868.7 49 914.3 44 937.2 41.5L960 39L960 0L937.2 0C914.3 0 868.7 0 823 0C777.3 0 731.7 0 686 0C640.3 0 594.7 0 548.8 0C503 0 457 0 411.2 0C365.3 0 319.7 0 274 0C228.3 0 182.7 0 137 0C91.3 0 45.7 0 22.8 0L0 0Z" fill="#151515"></path><path d="M0 23L22.8 21.2C45.7 19.3 91.3 15.7 137 17.5C182.7 19.3 228.3 26.7 274 29.8C319.7 33 365.3 32 411.2 31C457 30 503 29 548.8 27.5C594.7 26 640.3 24 686 24.3C731.7 24.7 777.3 27.3 823 28C868.7 28.7 914.3 27.3 937.2 26.7L960 26L960 0L937.2 0C914.3 0 868.7 0 823 0C777.3 0 731.7 0 686 0C640.3 0 594.7 0 548.8 0C503 0 457 0 411.2 0C365.3 0 319.7 0 274 0C228.3 0 182.7 0 137 0C91.3 0 45.7 0 22.8 0L0 0Z" fill="#0a0a0a"></path></svg>